<?xml version="1.0" encoding="UTF-8" standalone="no"?>
<svg
   width="512"
   height="512"
   version="1.1"
   id="svg67"
   sodipodi:docname="viz.svg"
   inkscape:version="1.2-beta (9f51c5e, 2022-04-18)"
   xmlns:inkscape="http://www.inkscape.org/namespaces/inkscape"
   xmlns:sodipodi="http://sodipodi.sourceforge.net/DTD/sodipodi-0.dtd"
   xmlns="http://www.w3.org/2000/svg"
   xmlns:svg="http://www.w3.org/2000/svg">
  <defs
     id="defs71" />
  <sodipodi:namedview
     id="namedview69"
     pagecolor="#ffffff"
     bordercolor="#666666"
     borderopacity="1.0"
     inkscape:pageshadow="2"
     inkscape:pageopacity="0.0"
     inkscape:pagecheckerboard="0"
     inkscape:deskcolor="#d1d1d1"
     showgrid="false"
     inkscape:zoom="0.4609375"
     inkscape:cx="259.25424"
     inkscape:cy="256"
     inkscape:window-width="1355"
     inkscape:window-height="768"
     inkscape:window-x="62"
     inkscape:window-y="25"
     inkscape:window-maximized="0"
     inkscape:current-layer="svg67" />
  <g
     id="g260"
     transform="matrix(0.51036221,0,0,0.51036221,137.23713,135.01622)"
     style="stroke-width:1.95939">
    <path
       d="m 72.890112,483.24736 136.882308,-136.8823 136.8823,136.8823 -136.8823,136.8823 z"
       fill="#ff0000"
       fill-opacity="0.5"
       id="path9"
       style="stroke-width:3.83922" />
    <path
       d="M 452.12134,2.200064 467.71789,-13.39648 483.31443,2.200064 467.71789,17.796608 Z"
       fill="#ff2a00"
       fill-opacity="0.5"
       id="path11"
       style="stroke-width:3.83922" />
    <path
       d="m 414.98074,319.59155 1.6928,-1.6928 1.6928,1.6928 -1.6928,1.6928 z"
       fill="#ff5500"
       fill-opacity="0.5"
       id="path13"
       style="stroke-width:3.83922" />
    <path
       d="M 332.49626,146.53709 479.19117,-0.157824 625.88608,146.53709 479.19117,293.232 Z"
       fill="#ff7f00"
       fill-opacity="0.5"
       id="path15"
       style="stroke-width:3.83922" />
    <path
       d="M -5.90272,333.53869 102.59277,225.0432 211.08826,333.53869 102.59277,442.03418 Z"
       fill="#ffaa00"
       fill-opacity="0.5"
       id="path17"
       style="stroke-width:3.83922" />
    <path
       d="M 272.78822,0.7488 375.53638,-101.99936 478.28454,0.7488 375.53638,103.49696 Z"
       fill="#ffd500"
       fill-opacity="0.5"
       id="path19"
       style="stroke-width:3.83922" />
    <path
       d="M 451.51475,1.593472 490.65088,-37.542656 529.78701,1.593472 490.65088,40.7296 Z"
       fill="#ffff00"
       fill-opacity="0.5"
       id="path21"
       style="stroke-width:3.83922" />
    <path
       d="m 265.31392,510.86528 68.10995,-68.10995 68.10995,68.10995 -68.10995,68.10995 z"
       fill="#d5ff00"
       fill-opacity="0.5"
       id="path23"
       style="stroke-width:3.83922" />
    <path
       d="M 58.786304,181.23674 164.83392,75.18912 270.88154,181.23674 164.83392,287.28435 Z"
       fill="#aaff00"
       fill-opacity="0.5"
       id="path25"
       style="stroke-width:3.83922" />
    <path
       d="m 305.01286,471.16634 93.25581,-93.25581 93.25581,93.25581 -93.25581,93.2558 z"
       fill="#7fff00"
       fill-opacity="0.5"
       id="path27"
       style="stroke-width:3.83922" />
    <path
       d="M 201.68422,214.92378 361.40288,55.20512 521.12154,214.92378 361.40288,374.64243 Z"
       fill="#55ff00"
       fill-opacity="0.5"
       id="path29"
       style="stroke-width:3.83922" />
    <path
       d="m 11.64416,252.55168 62.676864,-62.67686 62.676866,62.67686 -62.676866,62.67686 z"
       fill="#2aff00"
       fill-opacity="0.5"
       id="path31"
       style="stroke-width:3.83922" />
    <path
       d="m 448.74995,30.283392 61.19552,-61.19552 61.19552,61.19552 -61.19552,61.19552 z"
       fill="#00ff00"
       fill-opacity="0.5"
       id="path33"
       style="stroke-width:3.83922" />
    <path
       d="m 366.5239,31.537664 57.46752,-57.46752 57.46752,57.46752 -57.46752,57.46752 z"
       fill="#00ff2a"
       fill-opacity="0.5"
       id="path35"
       style="stroke-width:3.83922" />
    <path
       d="M -110.91354,8.681984 0.06464,-102.29619 111.04282,8.681984 0.06464,119.66016 Z"
       fill="#00ff55"
       fill-opacity="0.5"
       id="path37"
       style="stroke-width:3.83922" />
    <path
       d="M -39.601024,82.849408 200.49997,-157.25158 440.60096,82.849408 200.49997,322.9504 Z"
       fill="#00ff7f"
       fill-opacity="0.5"
       id="path39"
       style="stroke-width:3.83922" />
    <path
       d="M 168.6185,378.98112 282.90829,264.69133 397.19808,378.98112 282.90829,493.27091 Z"
       fill="#00ffaa"
       fill-opacity="0.5"
       id="path41"
       style="stroke-width:3.83922" />
    <path
       d="m 353.53318,254.7584 99.3801,-99.3801 99.3801,99.3801 -99.3801,99.3801 z"
       fill="#00ffd5"
       fill-opacity="0.5"
       id="path43"
       style="stroke-width:3.83922" />
    <path
       d="M 378.896,358.5376 483.88762,253.54598 588.87923,358.5376 483.88762,463.52922 Z"
       fill="#00ffff"
       fill-opacity="0.5"
       id="path45"
       style="stroke-width:3.83922" />
    <path
       d="M -145.07469,164.57472 39.95008,-20.450048 224.97485,164.57472 39.95008,349.59949 Z"
       fill="#00d5ff"
       fill-opacity="0.5"
       id="path47"
       style="stroke-width:3.83922" />
    <path
       d="M -96.607104,365.53958 6.64896,262.28352 109.90502,365.53958 6.64896,468.79565 Z"
       fill="#00aaff"
       fill-opacity="0.5"
       id="path49"
       style="stroke-width:3.83922" />
    <path
       d="M 21.487232,368.06234 177.61728,211.93229 333.74733,368.06234 177.61728,524.19238 Z"
       fill="#007fff"
       fill-opacity="0.5"
       id="path51"
       style="stroke-width:3.83922" />
    <path
       d="m -11.121408,464.84006 21.679616,-21.67961 21.679616,21.67961 -21.679616,21.67962 z"
       fill="#0055ff"
       fill-opacity="0.5"
       id="path53"
       style="stroke-width:3.83922" />
    <path
       d="m 381.74144,469.72429 90.46963,-90.46963 90.46963,90.46963 -90.46963,90.46963 z"
       fill="#002aff"
       fill-opacity="0.5"
       id="path55"
       style="stroke-width:3.83922" />
    <path
       d="M 109.15392,280.39565 267.0048,122.54477 424.85568,280.39565 267.0048,438.24653 Z"
       fill="#0000ff"
       fill-opacity="0.5"
       id="path57"
       style="stroke-width:3.83922" />
    <path
       d="M -17.051136,470.76979 91.211264,362.50739 199.47366,470.76979 91.211264,579.03219 Z"
       fill="#2a00ff"
       fill-opacity="0.5"
       id="path59"
       style="stroke-width:3.83922" />
    <path
       d="M -44.059648,497.7783 2.82816,450.8905 49.715968,497.7783 2.82816,544.66611 Z"
       fill="#5500ff"
       fill-opacity="0.5"
       id="path61"
       style="stroke-width:3.83922" />
    <path
       d="m 358.08474,377.96058 57.71008,-57.71008 57.71008,57.71008 -57.71008,57.71008 z"
       fill="#7f00ff"
       fill-opacity="0.5"
       id="path63"
       style="stroke-width:3.83922" />
    <circle
       cx="435.91193"
       cy="415.55365"
       r="10"
       fill-opacity="0"
       stroke="#ff0000"
       id="circle65"
       style="stroke-width:3.83922" />
  </g>
</svg>
